<svg xmlns="http://www.w3.org/2000/svg" width="108" height="38" viewBox="0 0 108 38" fill="none"><g clip-path="url(#clip0_405_1380)"><path d="M1.61475 30.0091C2.67741 30.5631 3.81319 31.0005 5.02209 31.3212C6.24074 31.642 7.30341 31.8023 8.21009 31.8023C9.11675 31.8023 9.77483 31.6613 10.1843 31.3795C10.6035 31.088 10.8132 30.6992 10.8132 30.2133C10.8132 29.6786 10.4719 29.2025 9.78944 28.7845C9.39946 28.5415 8.47819 28.0945 7.02556 27.4432C5.57292 26.7921 4.50051 26.1701 3.80832 25.5772C2.43368 24.4109 1.74636 22.8364 1.74636 20.8537C1.74636 18.8613 2.4678 17.316 3.91068 16.2177C5.35357 15.1194 7.32291 14.5703 9.81866 14.5703C12.0318 14.5703 14.2887 15.0806 16.5895 16.1011L14.8054 20.5475C12.8263 19.634 11.1056 19.1772 9.64323 19.1772C8.92178 19.1772 8.3807 19.3035 8.01997 19.5562C7.66901 19.8089 7.49352 20.1394 7.49352 20.5475C7.49352 20.9557 7.708 21.3348 8.13697 21.6847C8.51719 21.9763 9.65294 22.5545 11.5443 23.4196C13.4454 24.2749 14.7615 25.1836 15.4927 26.1457C16.224 27.0982 16.5895 28.2888 16.5895 29.7175C16.5895 29.7564 16.5895 29.7953 16.5895 29.8342C16.5895 31.778 15.834 33.372 14.3228 34.616C12.8214 35.8601 10.8424 36.4821 8.38558 36.4821C8.32707 36.4821 8.26858 36.4821 8.21009 36.4821C6.81594 36.4821 5.62655 36.3848 4.64188 36.1905C3.65721 35.9864 2.64816 35.6365 1.61475 35.1408V30.0091ZM27.104 36.4821C24.4036 36.4821 22.3513 35.758 20.9475 34.3098C19.5436 32.852 18.8416 30.7526 18.8416 28.0118C18.8416 25.2613 19.5972 23.1425 21.1083 21.6556C22.6194 20.1394 24.7691 19.3813 27.5574 19.3813C29.4682 19.3813 31.2767 19.7992 32.9828 20.635L31.3011 24.8483C30.5114 24.5081 29.8339 24.2603 29.2684 24.1048C28.7127 23.9395 28.1424 23.8569 27.5574 23.8569C26.6313 23.8569 25.9147 24.2165 25.4077 24.9357C24.9007 25.655 24.6472 26.6706 24.6472 27.9827C24.6472 30.6263 25.627 31.948 27.5867 31.948C29.2733 31.948 30.8818 31.4621 32.4125 30.4902V35.0241C30.9404 35.9961 29.1709 36.4821 27.104 36.4821ZM43.7898 19.3813C45.9152 19.3813 47.5579 19.9109 48.7181 20.9703C49.8879 22.0297 50.473 23.4924 50.473 25.3585V36.1905H46.5099L45.4131 34.0037H45.2961C44.5064 34.9659 43.7167 35.6219 42.927 35.9718C42.1373 36.312 41.1088 36.4821 39.8414 36.4821C38.2816 36.4821 37.0531 36.0155 36.1562 35.0825C35.2593 34.1397 34.8108 32.818 34.8108 31.1171C34.8108 29.4066 35.4104 28.1138 36.6096 27.2391C37.8184 26.3644 39.6123 25.8737 41.9911 25.7667L44.755 25.6792V25.446C44.755 24.0853 44.0823 23.405 42.7369 23.405C41.528 23.405 39.9925 23.8132 38.1305 24.6296L36.478 20.8682C38.4083 19.8769 40.8456 19.3813 43.7898 19.3813ZM40.6457 30.9421C40.6457 31.9529 41.1868 32.4583 42.2689 32.4583C42.9709 32.4583 43.5656 32.2396 44.053 31.8023C44.5405 31.3649 44.7843 30.7964 44.7843 30.0965V28.8137L43.4681 28.8719C41.5865 28.94 40.6457 29.63 40.6457 30.9421ZM60.0808 36.1905H54.3629V13.506H60.0808V36.1905ZM72.0431 36.4821C69.2938 36.4821 67.149 35.7531 65.6086 34.2953C64.0877 32.818 63.3272 30.7089 63.3272 27.9681C63.3272 25.2176 64.0341 23.1085 65.4477 21.6409C66.8614 20.1345 68.8453 19.3813 71.3996 19.3813C73.9539 19.3813 75.9135 20.0324 77.2784 21.3348C78.6433 22.6371 79.3257 24.5032 79.3257 26.933V29.4697H69.1037C69.1427 30.393 69.479 31.1171 70.1127 31.642C70.7562 32.1667 71.6092 32.4292 72.6719 32.4292C73.7443 32.4292 74.69 32.3368 75.5089 32.1522C76.3279 31.9675 77.2393 31.642 78.2436 31.1754V35.2721C77.3076 35.7482 76.3717 36.069 75.4358 36.2342C74.4999 36.3995 73.369 36.4821 72.0431 36.4821ZM74.1343 25.8833C74.1148 25.0864 73.8856 24.4497 73.4469 23.9736C73.018 23.4973 72.4428 23.2592 71.7214 23.2592C71.0097 23.2592 70.4344 23.4778 69.9957 23.9152C69.557 24.3526 69.2986 25.0086 69.2207 25.8833H74.1343ZM94.8566 25.7376L102.153 36.1905H95.4701L91.3026 29.528L87.1787 36.1905H80.6419L87.7344 25.2857L81.066 14.8765H87.4712L91.3316 21.466L95.0318 14.8765H101.642L94.8566 25.7376Z" fill="white"></path><path d="M100.286 12.6667C102.04 12.6667 103.462 11.2489 103.462 9.50001C103.462 7.75111 102.04 6.33334 100.286 6.33334C98.5313 6.33334 97.1091 7.75111 97.1091 9.50001C97.1091 11.2489 98.5313 12.6667 100.286 12.6667Z" fill="#2F6EE6"></path><path d="M104.823 6.33333C106.578 6.33333 108 4.91557 108 3.16667C108 1.41776 106.578 0 104.823 0C103.069 0 101.647 1.41776 101.647 3.16667C101.647 4.91557 103.069 6.33333 104.823 6.33333Z" fill="#FF3986"></path></g><defs><clipPath id="clip0_405_1380"><rect width="108" height="38" fill="white"></rect></clipPath></defs></svg>